<svg width="32" height="32" xmlns="http://www.w3.org/2000/svg">

 <g>
  <title>background</title>
  <rect fill="none" id="canvas_background" height="402" width="582" y="-1" x="-1"/>
 </g>
 <g>
  <title>Layer 1</title>
  <rect id="svg_1" width="32" height="32" fill="none"/>
  <polygon fill="#ffffff" id="svg_2" points="16,4 16,28 10,22 2,22 2,10 10,10  "/>
  <path fill="#ffffff" id="svg_3" d="m25.313,4.687l-1.446,1.447c2.515,2.531 4.07,6.017 4.07,9.867c0,3.851 -1.556,7.336 -4.07,9.867l1.446,1.446c2.896,-2.896 4.687,-6.896 4.687,-11.314s-1.791,-8.418 -4.687,-11.313z"/>
  <path fill="#ffffff" id="svg_4" d="m22.515,7.547l-1.414,1.415c1.791,1.808 2.899,4.293 2.899,7.038s-1.108,5.23 -2.899,7.038l1.414,1.414c2.153,-2.169 3.485,-5.154 3.485,-8.452s-1.332,-6.283 -3.485,-8.453z"/>
  <path fill="#ffffff" id="svg_5" d="m19.687,10.376l-1.414,1.415c1.067,1.082 1.727,2.568 1.727,4.209s-0.66,3.126 -1.728,4.21l1.414,1.414c1.43,-1.445 2.314,-3.431 2.314,-5.624s-0.884,-4.18 -2.313,-5.624z"/>
 </g>
</svg>