<svg width="64" height="64" xmlns="http://www.w3.org/2000/svg">

 <title/>
 <g>
  <title>background</title>
  <rect fill="none" id="canvas_background" height="402" width="582" y="-1" x="-1"/>
 </g>
 <g>
  <title>Layer 1</title>
  <path fill="#ff6600" id="svg_1" d="m30,52a1,1 0 0 1 -0.64,-0.23l-11.72,-9.77l-7.64,0a3,3 0 0 1 -3,-3l0,-14a3,3 0 0 1 3,-3l7.64,0l11.72,-9.77a1,1 0 0 1 1.64,0.77l0,38a1,1 0 0 1 -0.58,0.91a1,1 0 0 1 -0.42,0.09zm-20,-28a1,1 0 0 0 -1,1l0,14a1,1 0 0 0 1,1l8,0a1,1 0 0 1 0.64,0.23l10.36,8.63l0,-33.72l-10.36,8.63a1,1 0 0 1 -0.64,0.23l-8,0z" class="cls-1"/>
  <path fill="#ff6600" id="svg_2" d="m37,42a1,1 0 0 1 -0.6,-0.2a1,1 0 0 1 -0.2,-1.4a14,14 0 0 0 0,-16.8a1,1 0 0 1 1.6,-1.2a16,16 0 0 1 0,19.2a1,1 0 0 1 -0.8,0.4z" class="cls-1"/>
  <path fill="#ff6600" id="svg_3" d="m44,46a1,1 0 0 1 -0.82,-1.57a22.13,22.13 0 0 0 0,-24.86a1,1 0 1 1 1.64,-1.14a24.12,24.12 0 0 1 0,27.14a1,1 0 0 1 -0.82,0.43z" class="cls-1"/>
  <path fill="#ff6600" id="svg_4" d="m50,51a1,1 0 0 1 -0.6,-0.2a1,1 0 0 1 -0.2,-1.4a29,29 0 0 0 0,-34.8a1,1 0 0 1 1.6,-1.2a31,31 0 0 1 0,37.2a1,1 0 0 1 -0.8,0.4z" class="cls-1"/>
 </g>
</svg>